<svg version="1.1" id="Layer_1" xmlns="http://www.w3.org/2000/svg" xmlns:xlink="http://www.w3.org/1999/xlink" x="0px" y="0px"
	 width="100%" viewBox="0 0 289 88" enable-background="new 0 0 289 88" xml:space="preserve">
<path fill="#FDFBFD" opacity="1.000000" stroke="none" 
	d="
M191.000000,89.000000 
	C127.333351,89.000000 64.166702,89.000000 1.000042,89.000000 
	C1.000028,59.666695 1.000028,30.333389 1.000014,1.000062 
	C97.333275,1.000041 193.666550,1.000041 289.999878,1.000021 
	C289.999908,30.333267 289.999908,59.666534 289.999939,88.999901 
	C257.166656,89.000000 224.333328,89.000000 191.000000,89.000000 
M259.815674,70.127800 
	C265.401031,68.600082 267.927612,64.666580 267.982117,59.151901 
	C268.090820,48.154110 268.098846,37.153107 267.957245,26.155897 
	C267.873352,19.643131 265.714630,17.348757 258.588593,15.120727 
	C229.068253,15.048772 199.546661,14.845303 170.029739,15.128500 
	C167.368683,15.154032 164.737762,18.320768 161.704666,20.775425 
	C161.455917,21.561260 160.993591,22.346210 160.990326,23.133064 
	C160.937057,35.960999 160.754379,48.794426 161.113419,61.612251 
	C161.175095,63.814007 163.599472,65.949585 165.188889,68.599602 
	C165.694611,68.773705 166.200333,68.947815 167.161255,69.627014 
	C167.813110,69.751320 168.464951,69.875626 169.780380,70.445274 
	C170.604172,70.539185 171.427979,70.715073 172.251770,70.715141 
	C200.075928,70.717506 227.900116,70.710503 255.724213,70.664459 
	C256.842621,70.662605 257.960358,70.268044 259.815674,70.127800 
M27.575443,41.866737 
	C23.315655,40.544003 18.971989,39.431133 14.843103,37.780884 
	C13.460633,37.228333 11.714041,35.246414 11.792029,34.023613 
	C11.873704,32.743031 13.927538,30.612698 15.155965,30.586761 
	C17.606195,30.535027 21.169729,30.883017 22.320557,32.476391 
	C24.740047,35.826286 27.150312,34.836376 29.985378,34.430309 
	C28.740208,25.707275 19.188353,21.640701 10.472827,25.769806 
	C6.509675,27.647406 4.075778,30.655754 4.225001,35.119598 
	C4.378331,39.706257 7.288679,42.338520 11.456120,43.603931 
	C13.834272,44.326042 16.509178,44.325977 18.679892,45.400036 
	C20.618048,46.359020 22.047209,48.346703 23.700974,49.880451 
	C21.658587,51.180752 19.745104,53.143513 17.533443,53.573856 
	C15.731461,53.924492 13.518042,52.568775 11.586005,51.739243 
	C9.190434,50.710690 6.896890,49.444504 3.818936,47.912472 
	C4.466561,55.952438 8.323532,59.156521 15.800581,59.451393 
	C24.550482,59.796463 30.437313,56.560360 30.749649,50.490223 
	C30.886684,47.826992 29.090435,45.064281 27.575443,41.866737 
M61.559338,46.480347 
	C61.559338,50.577484 61.559338,54.674622 61.559338,58.718269 
	C64.081711,58.718269 65.994179,58.718269 68.212135,58.718269 
	C68.212135,53.968395 68.131226,49.497829 68.238861,45.031807 
	C68.318596,41.723568 69.493607,39.033710 73.392464,39.064617 
	C77.099052,39.093998 78.067062,41.702118 78.108620,44.820179 
	C78.170090,49.432293 78.124512,54.045834 78.124512,58.679703 
	C80.741890,58.679703 82.780212,58.679703 84.998833,58.679703 
	C84.998833,52.876671 85.188843,47.393341 84.949623,41.928806 
	C84.665535,35.439449 78.948029,31.568756 73.142181,33.783550 
	C71.531105,34.398136 70.109756,35.510067 68.063232,36.709103 
	C68.063232,32.605885 68.063232,28.896036 68.063232,25.284853 
	C65.662231,25.284853 63.761063,25.284853 61.558201,25.284853 
	C61.558201,32.210899 61.558201,38.848438 61.559338,46.480347 
M140.636581,51.553352 
	C142.210754,41.878357 139.941132,36.272999 133.522079,33.982456 
	C126.936531,31.632494 119.952011,34.302448 117.454376,40.124607 
	C114.431473,47.171185 116.947174,55.440174 122.986877,58.309658 
	C129.504303,61.406109 136.428406,58.998161 140.636581,51.553352 
M112.993385,49.922459 
	C113.662514,40.786640 111.358871,35.953537 105.364212,33.916199 
	C98.567818,31.606384 91.461105,34.603745 89.184143,40.740379 
	C86.481995,48.022915 89.402237,56.188934 95.579933,58.625309 
	C102.967422,61.538807 109.544052,58.545773 112.993385,49.922459 
M34.160309,52.015541 
	C37.733715,58.304466 41.719250,60.334160 48.440277,59.207928 
	C53.453007,58.367947 56.277416,55.391750 57.307484,49.086536 
	C54.492542,49.984577 51.657372,50.038574 50.425690,51.471172 
	C48.308247,53.934029 45.529152,55.228561 43.711956,53.301548 
	C41.759045,51.230598 40.860481,47.645290 40.619789,44.631489 
	C40.395653,41.824936 41.838875,38.910027 45.451790,38.843227 
	C46.778961,38.818695 48.823830,39.379005 49.335888,40.325024 
	C51.238327,43.839733 54.039593,43.129944 56.970997,42.751320 
	C56.139610,37.555672 54.045673,35.000572 49.585697,33.774769 
	C38.374191,30.693319 30.618099,40.042999 34.160309,52.015541 
M151.165146,31.566214 
	C151.165146,29.472645 151.165146,27.379076 151.165146,25.289892 
	C148.665619,25.289892 146.755890,25.289892 144.895752,25.289892 
	C144.895752,36.609890 144.895752,47.642311 144.895752,58.696045 
	C147.104691,58.696045 148.999893,58.696045 151.167282,58.696045 
	C151.167282,49.783218 151.167282,41.169163 151.165146,31.566214 
z"/>
<path fill="#E41479" opacity="1.000000" stroke="none" 
	d="
M162.092850,20.028719 
	C164.737762,18.320768 167.368683,15.154032 170.029739,15.128500 
	C199.546661,14.845303 229.068253,15.048772 258.805725,15.966749 
	C259.328125,23.331923 259.922119,29.664410 261.281250,36.207623 
	C263.149353,45.201057 260.973541,55.034489 260.515411,64.828468 
	C260.721832,64.937279 261.619843,65.410606 262.517853,65.883934 
	C262.478516,66.370033 262.439148,66.856133 262.399811,67.342232 
	C258.312256,67.894104 254.227646,68.898300 250.136673,68.924896 
	C222.327209,69.105751 194.516418,69.080566 166.706055,69.121918 
	C166.200333,68.947815 165.694611,68.773705 165.072113,67.951996 
	C164.304230,63.855560 163.172623,60.417965 163.091721,56.955818 
	C162.844635,46.381126 163.042648,35.796677 162.961090,25.216841 
	C162.947754,23.485336 162.395844,21.757986 162.092850,20.028719 
M206.468964,59.027035 
	C206.663528,59.010963 206.858078,58.994896 207.935867,59.004467 
	C209.521210,59.004467 211.106552,59.004467 213.005920,59.004467 
	C213.005920,56.975239 212.955231,55.508640 213.019653,54.047115 
	C213.089066,52.472370 213.266281,50.902382 213.405014,49.227165 
	C215.802032,49.227165 217.620605,49.288895 219.433762,49.216030 
	C225.846985,48.958313 229.726486,45.108570 229.803024,38.986412 
	C229.881531,32.706043 226.308151,28.589500 220.012131,28.175602 
	C215.729111,27.894037 211.415527,28.077202 206.554337,28.196533 
	C206.311829,28.489397 206.069336,28.782261 205.395493,29.417398 
	C205.254669,29.946972 205.113861,30.476545 204.273590,30.992277 
	C203.738647,30.141684 203.371918,29.084797 202.634018,28.483128 
	C201.062866,27.202068 199.351883,26.061646 197.577744,25.081667 
	C197.121033,24.829399 196.216980,25.387003 194.587799,25.819782 
	C196.540207,26.749537 197.576767,27.243160 199.614014,28.213318 
	C197.643692,28.663776 196.761154,28.865543 195.136551,28.926365 
	C189.353333,27.061916 183.701828,26.645786 178.598602,30.735468 
	C172.301178,35.782150 172.445648,46.549706 175.614243,52.686638 
	C178.533798,58.341293 184.191483,60.366814 193.255920,59.007004 
	C193.745956,58.933487 194.241440,58.896282 195.409729,59.191017 
	C199.942566,65.752136 200.027313,65.752365 204.231323,59.484486 
	C204.394730,59.240849 204.773224,59.141483 205.467087,58.989666 
	C205.467087,58.989666 205.883820,59.002560 206.468964,59.027035 
M236.528717,33.360115 
	C237.949234,33.451679 239.369751,33.543247 241.002289,33.648479 
	C241.002289,38.266659 241.002289,42.414463 241.002289,46.562267 
	C241.002289,50.650772 241.002289,54.739277 241.002289,59.045746 
	C243.466232,58.936985 245.228531,58.859192 247.380844,58.764183 
	C247.380844,52.093727 247.667053,45.786861 247.285904,39.520588 
	C247.005463,34.909954 248.096664,32.525417 253.167358,33.352360 
	C254.049057,33.496143 255.023926,33.068649 256.243927,32.854412 
	C256.133392,31.195175 256.040894,29.806545 255.925095,28.068356 
	C248.943954,28.068356 242.317810,27.951338 235.701660,28.156607 
	C234.184921,28.203663 231.448639,29.328896 231.431763,30.011261 
	C231.373459,32.370739 232.981415,33.808716 236.528717,33.360115 
z"/>
<path fill="#363536" opacity="1.000000" stroke="none" 
	d="
M27.873734,42.106739 
	C29.090435,45.064281 30.886684,47.826992 30.749649,50.490223 
	C30.437313,56.560360 24.550482,59.796463 15.800581,59.451393 
	C8.323532,59.156521 4.466561,55.952438 3.818936,47.912472 
	C6.896890,49.444504 9.190434,50.710690 11.586005,51.739243 
	C13.518042,52.568775 15.731461,53.924492 17.533443,53.573856 
	C19.745104,53.143513 21.658587,51.180752 23.700974,49.880451 
	C22.047209,48.346703 20.618048,46.359020 18.679892,45.400036 
	C16.509178,44.325977 13.834272,44.326042 11.456120,43.603931 
	C7.288679,42.338520 4.378331,39.706257 4.225001,35.119598 
	C4.075778,30.655754 6.509675,27.647406 10.472827,25.769806 
	C19.188353,21.640701 28.740208,25.707275 29.985378,34.430309 
	C27.150312,34.836376 24.740047,35.826286 22.320557,32.476391 
	C21.169729,30.883017 17.606195,30.535027 15.155965,30.586761 
	C13.927538,30.612698 11.873704,32.743031 11.792029,34.023613 
	C11.714041,35.246414 13.460633,37.228333 14.843103,37.780884 
	C18.971989,39.431133 23.315655,40.544003 27.873734,42.106739 
z"/>
<path fill="#323133" opacity="1.000000" stroke="none" 
	d="
M61.558769,45.983162 
	C61.558201,38.848438 61.558201,32.210899 61.558201,25.284853 
	C63.761063,25.284853 65.662231,25.284853 68.063232,25.284853 
	C68.063232,28.896036 68.063232,32.605885 68.063232,36.709103 
	C70.109756,35.510067 71.531105,34.398136 73.142181,33.783550 
	C78.948029,31.568756 84.665535,35.439449 84.949623,41.928806 
	C85.188843,47.393341 84.998833,52.876671 84.998833,58.679703 
	C82.780212,58.679703 80.741890,58.679703 78.124512,58.679703 
	C78.124512,54.045834 78.170090,49.432293 78.108620,44.820179 
	C78.067062,41.702118 77.099052,39.093998 73.392464,39.064617 
	C69.493607,39.033710 68.318596,41.723568 68.238861,45.031807 
	C68.131226,49.497829 68.212135,53.968395 68.212135,58.718269 
	C65.994179,58.718269 64.081711,58.718269 61.559338,58.718269 
	C61.559338,54.674622 61.559338,50.577484 61.558769,45.983162 
z"/>
<path fill="#DE167D" opacity="1.000000" stroke="none" 
	d="
M166.933655,69.374466 
	C194.516418,69.080566 222.327209,69.105751 250.136673,68.924896 
	C254.227646,68.898300 258.312256,67.894104 262.399811,67.342232 
	C262.439148,66.856133 262.478516,66.370033 262.517853,65.883934 
	C261.619843,65.410606 260.721832,64.937279 260.515411,64.828468 
	C260.973541,55.034489 263.149353,45.201057 261.281250,36.207623 
	C259.922119,29.664410 259.328125,23.331923 259.038330,16.336830 
	C265.714630,17.348757 267.873352,19.643131 267.957245,26.155897 
	C268.098846,37.153107 268.090820,48.154110 267.982117,59.151901 
	C267.927612,64.666580 265.401031,68.600082 258.973969,70.078255 
	C228.460449,70.019119 198.788620,70.009529 169.116806,69.999939 
	C168.464951,69.875626 167.813110,69.751320 166.933655,69.374466 
z"/>
<path fill="#363536" opacity="1.000000" stroke="none" 
	d="
M140.459991,51.923954 
	C136.428406,58.998161 129.504303,61.406109 122.986877,58.309658 
	C116.947174,55.440174 114.431473,47.171185 117.454376,40.124607 
	C119.952011,34.302448 126.936531,31.632494 133.522079,33.982456 
	C139.941132,36.272999 142.210754,41.878357 140.459991,51.923954 
M124.579536,41.108746 
	C124.364296,44.143967 123.635460,47.255077 124.069794,50.194309 
	C124.561729,53.523369 127.532997,54.989304 130.440140,53.640198 
	C132.121124,52.860115 133.873047,50.197918 133.900070,48.357922 
	C133.942337,45.479797 133.059143,42.245323 131.494766,39.868034 
	C130.929855,39.009571 127.273041,40.185722 124.579536,41.108746 
z"/>
<path fill="#363536" opacity="1.000000" stroke="none" 
	d="
M112.932152,50.339302 
	C109.544052,58.545773 102.967422,61.538807 95.579933,58.625309 
	C89.402237,56.188934 86.481995,48.022915 89.184143,40.740379 
	C91.461105,34.603745 98.567818,31.606384 105.364212,33.916199 
	C111.358871,35.953537 113.662514,40.786640 112.932152,50.339302 
M95.949242,50.362076 
	C98.031479,51.547676 100.286598,53.859318 102.143051,53.574291 
	C103.721558,53.331940 105.068039,50.206535 106.068672,48.139580 
	C106.584206,47.074680 106.604568,45.233414 106.002106,44.275242 
	C104.733398,42.257423 103.221603,39.684071 101.234573,38.993725 
	C98.316345,37.979851 96.236519,40.263882 95.801613,43.273052 
	C95.502914,45.339764 95.752464,47.485706 95.949242,50.362076 
z"/>
<path fill="#353435" opacity="1.000000" stroke="none" 
	d="
M34.072235,51.633347 
	C30.618099,40.042999 38.374191,30.693319 49.585697,33.774769 
	C54.045673,35.000572 56.139610,37.555672 56.970997,42.751320 
	C54.039593,43.129944 51.238327,43.839733 49.335888,40.325024 
	C48.823830,39.379005 46.778961,38.818695 45.451790,38.843227 
	C41.838875,38.910027 40.395653,41.824936 40.619789,44.631489 
	C40.860481,47.645290 41.759045,51.230598 43.711956,53.301548 
	C45.529152,55.228561 48.308247,53.934029 50.425690,51.471172 
	C51.657372,50.038574 54.492542,49.984577 57.307484,49.086536 
	C56.277416,55.391750 53.453007,58.367947 48.440277,59.207928 
	C41.719250,60.334160 37.733715,58.304466 34.072235,51.633347 
z"/>
<path fill="#2F2C2E" opacity="1.000000" stroke="none" 
	d="
M151.166214,32.060658 
	C151.167282,41.169163 151.167282,49.783218 151.167282,58.696045 
	C148.999893,58.696045 147.104691,58.696045 144.895752,58.696045 
	C144.895752,47.642311 144.895752,36.609890 144.895752,25.289892 
	C146.755890,25.289892 148.665619,25.289892 151.165146,25.289892 
	C151.165146,27.379076 151.165146,29.472645 151.166214,32.060658 
z"/>
<path fill="#DD1470" opacity="1.000000" stroke="none" 
	d="
M161.898758,20.402071 
	C162.395844,21.757986 162.947754,23.485336 162.961090,25.216841 
	C163.042648,35.796677 162.844635,46.381126 163.091721,56.955818 
	C163.172623,60.417965 164.304230,63.855560 164.943878,67.710052 
	C163.599472,65.949585 161.175095,63.814007 161.113419,61.612251 
	C160.754379,48.794426 160.937057,35.960999 160.990326,23.133064 
	C160.993591,22.346210 161.455917,21.561260 161.898758,20.402071 
z"/>
<path fill="#E41479" opacity="1.000000" stroke="none" 
	d="
M169.448593,70.222610 
	C198.788620,70.009529 228.460449,70.019119 258.605347,70.042587 
	C257.960358,70.268044 256.842621,70.662605 255.724213,70.664459 
	C227.900116,70.710503 200.075928,70.717506 172.251770,70.715141 
	C171.427979,70.715073 170.604172,70.539185 169.448593,70.222610 
z"/>
<path fill="#FCEFF7" opacity="1.000000" stroke="none" 
	d="
M194.734390,58.842178 
	C194.241440,58.896282 193.745956,58.933487 193.255920,59.007004 
	C184.191483,60.366814 178.533798,58.341293 175.614243,52.686638 
	C172.445648,46.549706 172.301178,35.782150 178.598602,30.735468 
	C183.701828,26.645786 189.353333,27.061916 195.724854,29.257484 
	C198.433136,32.266735 200.553116,34.944866 202.673096,37.622997 
	C202.313156,38.046349 201.953232,38.469704 201.593292,38.893055 
	C199.478348,38.893055 197.363388,38.893055 195.202637,38.565826 
	C195.027313,37.825150 194.897827,37.411701 194.714539,36.714745 
	C194.104019,35.998848 193.547287,35.566460 192.686737,35.046326 
	C191.975220,34.851082 191.567520,34.743580 191.092987,34.277752 
	C183.514648,31.643873 179.029984,37.139824 180.870712,46.711723 
	C181.233871,48.122528 181.464462,49.254574 182.011536,50.204311 
	C184.030197,53.708801 187.208252,54.612885 190.899124,53.593121 
	C193.806030,52.789967 196.048065,51.273144 194.744598,47.448444 
	C192.916855,47.295933 191.148636,47.148388 188.878845,46.958996 
	C188.958282,45.376884 189.028778,43.972736 189.557785,42.596024 
	C193.921722,42.623459 197.827164,42.623459 201.593414,42.623459 
	C202.980637,50.122784 200.570770,55.252991 194.734390,58.842178 
z"/>
<path fill="#FDF4FA" opacity="1.000000" stroke="none" 
	d="
M207.115601,28.052553 
	C211.415527,28.077202 215.729111,27.894037 220.012131,28.175602 
	C226.308151,28.589500 229.881531,32.706043 229.803024,38.986412 
	C229.726486,45.108570 225.846985,48.958313 219.433762,49.216030 
	C217.620605,49.288895 215.802032,49.227165 213.405014,49.227165 
	C213.266281,50.902382 213.089066,52.472370 213.019653,54.047115 
	C212.955231,55.508640 213.005920,56.975239 213.005920,59.004467 
	C211.106552,59.004467 209.521210,59.004467 207.393646,58.533253 
	C206.939499,48.058876 207.027557,38.055714 207.115601,28.052553 
M217.165970,44.175163 
	C221.320129,43.779053 223.979797,41.387463 222.841599,37.379848 
	C221.446930,32.469212 216.945648,34.338577 213.008102,34.125736 
	C213.008102,36.764019 212.648819,39.126179 213.153870,41.286247 
	C213.421768,42.432003 215.190125,43.226936 217.165970,44.175163 
z"/>
<path fill="#FEF7FE" opacity="1.000000" stroke="none" 
	d="
M236.087006,33.359692 
	C232.981415,33.808716 231.373459,32.370739 231.431763,30.011261 
	C231.448639,29.328896 234.184921,28.203663 235.701660,28.156607 
	C242.317810,27.951338 248.943954,28.068356 255.925095,28.068356 
	C256.040894,29.806545 256.133392,31.195175 256.243927,32.854412 
	C255.023926,33.068649 254.049057,33.496143 253.167358,33.352360 
	C248.096664,32.525417 247.005463,34.909954 247.285904,39.520588 
	C247.667053,45.786861 247.380844,52.093727 247.380844,58.764183 
	C245.228531,58.859192 243.466232,58.936985 241.002289,59.045746 
	C241.002289,54.739277 241.002289,50.650772 241.002289,46.562267 
	C241.002289,42.414463 241.002289,38.266659 241.002289,33.648479 
	C239.369751,33.543247 237.949234,33.451679 236.087006,33.359692 
z"/>
<path fill="#E21880" opacity="1.000000" stroke="none" 
	d="
M195.072052,59.016602 
	C200.570770,55.252991 202.980637,50.122784 201.593414,42.623459 
	C197.827164,42.623459 193.921722,42.623459 189.841507,42.423019 
	C191.527298,41.112736 193.387878,40.002899 195.248444,38.893059 
	C197.363388,38.893055 199.478348,38.893055 201.593292,38.893055 
	C201.953232,38.469704 202.313156,38.046349 202.673096,37.622997 
	C200.553116,34.944866 198.433136,32.266735 196.095886,29.327957 
	C196.761154,28.865543 197.643692,28.663776 199.614014,28.213318 
	C197.576767,27.243160 196.540207,26.749537 194.587799,25.819782 
	C196.216980,25.387003 197.121033,24.829399 197.577744,25.081667 
	C199.351883,26.061646 201.062866,27.202068 202.634018,28.483128 
	C203.371918,29.084797 203.738647,30.141684 204.632629,31.467098 
	C205.011597,40.952911 205.031555,49.963902 205.051498,58.974892 
	C204.773224,59.141483 204.394730,59.240849 204.231323,59.484486 
	C200.027313,65.752365 199.942566,65.752136 195.072052,59.016602 
z"/>
<path fill="#F43896" opacity="1.000000" stroke="none" 
	d="
M206.834961,28.124542 
	C207.027557,38.055714 206.939499,48.058876 206.952026,58.520432 
	C206.858078,58.994896 206.663528,59.010963 206.192139,58.546021 
	C205.885818,48.401714 205.856323,38.738419 205.826828,29.075125 
	C206.069336,28.782261 206.311829,28.489397 206.834961,28.124542 
z"/>
<path fill="#C02268" opacity="1.000000" stroke="none" 
	d="
M205.611160,29.246262 
	C205.856323,38.738419 205.885818,48.401714 205.899567,58.533783 
	C205.883820,59.002560 205.467087,58.989666 205.259293,58.982277 
	C205.031555,49.963902 205.011597,40.952911 204.982361,31.474020 
	C205.113861,30.476545 205.254669,29.946972 205.611160,29.246262 
z"/>
<path fill="#F6F4F6" opacity="1.000000" stroke="none" 
	d="
M124.803345,40.771080 
	C127.273041,40.185722 130.929855,39.009571 131.494766,39.868034 
	C133.059143,42.245323 133.942337,45.479797 133.900070,48.357922 
	C133.873047,50.197918 132.121124,52.860115 130.440140,53.640198 
	C127.532997,54.989304 124.561729,53.523369 124.069794,50.194309 
	C123.635460,47.255077 124.364296,44.143967 124.803345,40.771080 
z"/>
<path fill="#F6F5F6" opacity="1.000000" stroke="none" 
	d="
M95.853104,49.979156 
	C95.752464,47.485706 95.502914,45.339764 95.801613,43.273052 
	C96.236519,40.263882 98.316345,37.979851 101.234573,38.993725 
	C103.221603,39.684071 104.733398,42.257423 106.002106,44.275242 
	C106.604568,45.233414 106.584206,47.074680 106.068672,48.139580 
	C105.068039,50.206535 103.721558,53.331940 102.143051,53.574291 
	C100.286598,53.859318 98.031479,51.547676 95.853104,49.979156 
z"/>
<path fill="#E4187A" opacity="1.000000" stroke="none" 
	d="
M195.202637,38.565826 
	C193.387878,40.002899 191.527298,41.112736 189.383011,42.395584 
	C189.028778,43.972736 188.958282,45.376884 188.878845,46.958996 
	C191.148636,47.148388 192.916855,47.295933 194.744598,47.448444 
	C196.048065,51.273144 193.806030,52.789967 190.899124,53.593121 
	C187.208252,54.612885 184.030197,53.708801 182.011536,50.204311 
	C181.464462,49.254574 181.233871,48.122528 180.918976,46.290863 
	C181.915070,42.835327 182.850204,40.163094 183.437927,38.483673 
	C186.458817,36.978451 188.809326,35.807266 191.159836,34.636082 
	C191.567520,34.743580 191.975220,34.851082 192.727234,35.335770 
	C193.637146,36.141388 194.202744,36.569820 194.768341,36.998253 
	C194.897827,37.411701 195.027313,37.825150 195.202637,38.565826 
z"/>
<path fill="#DE1F7F" opacity="1.000000" stroke="none" 
	d="
M191.092987,34.277752 
	C188.809326,35.807266 186.458817,36.978451 183.437927,38.483673 
	C182.850204,40.163094 181.915070,42.835327 180.931671,45.928421 
	C179.029984,37.139824 183.514648,31.643873 191.092987,34.277752 
z"/>
<path fill="#DE1F7F" opacity="1.000000" stroke="none" 
	d="
M194.714539,36.714745 
	C194.202744,36.569820 193.637146,36.141388 193.031052,35.423515 
	C193.547287,35.566460 194.104019,35.998848 194.714539,36.714745 
z"/>
<path fill="#DC1379" opacity="1.000000" stroke="none" 
	d="
M216.723557,44.177700 
	C215.190125,43.226936 213.421768,42.432003 213.153870,41.286247 
	C212.648819,39.126179 213.008102,36.764019 213.008102,34.125736 
	C216.945648,34.338577 221.446930,32.469212 222.841599,37.379848 
	C223.979797,41.387463 221.320129,43.779053 216.723557,44.177700 
z"/>
</svg>